<?xml version="1.0" encoding="UTF-8"?>
<svg xmlns="http://www.w3.org/2000/svg" version="1.1" width="300" height="300" viewBox="0 0 300 300"><rect x="0" y="0" width="300" height="300" fill="#ffffff"/><g transform="scale(9.091)"><g transform="translate(2,2)"><path fill-rule="evenodd" d="M8 0L8 2L10 2L10 4L8 4L8 9L7 9L7 8L5 8L5 9L7 9L7 10L6 10L6 11L5 11L5 10L3 10L3 8L0 8L0 9L1 9L1 10L0 10L0 13L1 13L1 10L3 10L3 11L5 11L5 12L3 12L3 13L2 13L2 14L0 14L0 17L1 17L1 15L4 15L4 16L2 16L2 18L0 18L0 19L2 19L2 20L0 20L0 21L2 21L2 20L3 20L3 21L8 21L8 22L10 22L10 20L9 20L9 21L8 21L8 20L6 20L6 19L7 19L7 18L6 18L6 17L7 17L7 16L6 16L6 17L4 17L4 16L5 16L5 15L4 15L4 14L5 14L5 12L6 12L6 13L7 13L7 14L6 14L6 15L8 15L8 18L9 18L9 19L10 19L10 18L11 18L11 19L12 19L12 18L11 18L11 16L13 16L13 18L15 18L15 19L16 19L16 20L15 20L15 22L13 22L13 21L14 21L14 19L13 19L13 20L11 20L11 21L12 21L12 23L10 23L10 25L9 25L9 26L8 26L8 29L14 29L14 27L13 27L13 28L9 28L9 26L10 26L10 27L12 27L12 26L10 26L10 25L11 25L11 24L13 24L13 26L15 26L15 28L16 28L16 29L17 29L17 27L18 27L18 26L19 26L19 28L18 28L18 29L21 29L21 27L20 27L20 26L21 26L21 25L23 25L23 27L24 27L24 28L22 28L22 29L25 29L25 22L27 22L27 21L28 21L28 23L29 23L29 21L28 21L28 20L27 20L27 21L26 21L26 20L24 20L24 19L22 19L22 20L20 20L20 21L19 21L19 19L21 19L21 18L20 18L20 16L18 16L18 17L17 17L17 16L16 16L16 15L18 15L18 14L19 14L19 15L23 15L23 16L21 16L21 17L22 17L22 18L23 18L23 17L24 17L24 16L25 16L25 18L28 18L28 19L29 19L29 16L28 16L28 17L26 17L26 16L25 16L25 15L26 15L26 14L28 14L28 15L29 15L29 12L28 12L28 13L26 13L26 14L25 14L25 15L24 15L24 14L23 14L23 11L27 11L27 10L28 10L28 11L29 11L29 8L27 8L27 10L23 10L23 9L25 9L25 8L21 8L21 9L22 9L22 10L23 10L23 11L22 11L22 12L21 12L21 14L20 14L20 12L19 12L19 11L21 11L21 10L20 10L20 8L19 8L19 10L18 10L18 9L17 9L17 8L16 8L16 9L15 9L15 6L14 6L14 8L13 8L13 6L12 6L12 4L11 4L11 3L13 3L13 2L14 2L14 4L13 4L13 5L15 5L15 1L16 1L16 3L17 3L17 4L18 4L18 5L16 5L16 7L17 7L17 6L18 6L18 7L19 7L19 4L20 4L20 5L21 5L21 4L20 4L20 3L18 3L18 2L19 2L19 1L18 1L18 0L14 0L14 1L13 1L13 0L11 0L11 1L9 1L9 0ZM11 1L11 2L12 2L12 1ZM17 1L17 2L18 2L18 1ZM20 1L20 2L21 2L21 1ZM9 5L9 8L10 8L10 6L11 6L11 7L12 7L12 6L11 6L11 5ZM20 6L20 7L21 7L21 6ZM11 8L11 10L9 10L9 11L10 11L10 14L11 14L11 15L9 15L9 16L11 16L11 15L12 15L12 13L11 13L11 12L13 12L13 11L14 11L14 13L13 13L13 14L15 14L15 13L16 13L16 11L15 11L15 10L13 10L13 8ZM7 10L7 11L6 11L6 12L7 12L7 13L9 13L9 12L7 12L7 11L8 11L8 10ZM11 10L11 11L12 11L12 10ZM17 11L17 14L18 14L18 13L19 13L19 12L18 12L18 11ZM3 13L3 14L4 14L4 13ZM13 15L13 16L14 16L14 15ZM9 17L9 18L10 18L10 17ZM18 17L18 18L16 18L16 19L17 19L17 20L16 20L16 21L17 21L17 23L15 23L15 24L16 24L16 25L17 25L17 26L16 26L16 27L17 27L17 26L18 26L18 19L19 19L19 17ZM2 18L2 19L3 19L3 18ZM4 19L4 20L5 20L5 19ZM21 21L21 24L24 24L24 21ZM19 22L19 24L20 24L20 22ZM22 22L22 23L23 23L23 22ZM8 23L8 24L9 24L9 23ZM13 23L13 24L14 24L14 23ZM28 24L28 26L26 26L26 27L29 27L29 24ZM19 25L19 26L20 26L20 25ZM28 28L28 29L29 29L29 28ZM0 0L0 7L7 7L7 0ZM1 1L1 6L6 6L6 1ZM2 2L2 5L5 5L5 2ZM22 0L22 7L29 7L29 0ZM23 1L23 6L28 6L28 1ZM24 2L24 5L27 5L27 2ZM0 22L0 29L7 29L7 22ZM1 23L1 28L6 28L6 23ZM2 24L2 27L5 27L5 24Z" fill="#000000"/></g></g></svg>
